<svg xmlns="http://www.w3.org/2000/svg" xmlns:xlink="http://www.w3.org/1999/xlink" width="26.875" height="40.844" viewBox="0 0 26.875 40.844">
  <defs>
    <style>
      .cls-1 {
        fill: #fff;
        fill-rule: evenodd;
        filter: url(#filter);
      }
    </style>
    <filter id="filter" x="43.125" y="174" width="26.875" height="40.844" filterUnits="userSpaceOnUse">
      <feFlood result="flood" flood-color="#bababa"/>
      <feComposite result="composite" operator="in" in2="SourceGraphic"/>
      <feBlend result="blend" in2="SourceGraphic"/>
    </filter>
  </defs>
  <path id="iphone" class="cls-1" d="M46.491,174h20.15A3.381,3.381,0,0,1,70,177.4v34.042a3.381,3.381,0,0,1-3.358,3.4H46.491a3.381,3.381,0,0,1-3.358-3.4V177.4A3.381,3.381,0,0,1,46.491,174Zm0.035,5.106H66.641v27.233H46.491Zm5-3.4h8.4l0.1,1.7h-8.5v-1.7Zm5,33.191a1.7,1.7,0,1,1-1.679,1.7A1.691,1.691,0,0,1,56.531,208.893Z" transform="translate(-43.125 -174)"/>
</svg>
